<svg xmlns="http://www.w3.org/2000/svg" xmlns:xlink="http://www.w3.org/1999/xlink" width="500" zoomAndPan="magnify" viewBox="0 0 375 374.999991" height="500" preserveAspectRatio="xMidYMid meet" version="1.0"><defs><clipPath id="a6d514a234"><path d="M 20 3.710938 L 354 3.710938 L 354 371.210938 L 20 371.210938 Z M 20 3.710938 " clip-rule="nonzero"/></clipPath></defs><g clip-path="url(#a6d514a234)"><path fill="#000000" d="M 274.628906 290.554688 C 262.503906 306.863281 249.550781 317.765625 245.695312 314.90625 C 241.847656 312.046875 248.558594 296.503906 260.6875 280.195312 C 272.8125 263.882812 285.769531 252.988281 289.617188 255.847656 C 293.464844 258.707031 286.757812 274.242188 274.628906 290.554688 Z M 306.453125 150.636719 C 306.128906 147.269531 305.796875 143.90625 305.421875 140.761719 C 304.34375 131.566406 302.476562 126.53125 299.734375 125.355469 C 298.667969 124.90625 297.511719 125.054688 296.558594 125.773438 C 294.675781 127.191406 293.640625 130.875 294.101562 134.527344 C 294.777344 139.90625 295.207031 145.335938 295.429688 150.636719 L 283.34375 150.636719 C 283.359375 146.75 283.390625 142.882812 283.417969 139.160156 C 283.675781 106.238281 283.328125 92.679688 278.707031 91.140625 C 277.660156 90.792969 276.601562 90.945312 275.71875 91.570312 C 271.785156 94.363281 271.402344 107.78125 271.105469 129.429688 C 271.007812 136.679688 270.902344 144.035156 270.578125 150.636719 L 264.90625 150.636719 C 264.035156 143.394531 263.191406 136.734375 262.085938 133.679688 C 261.667969 132.519531 260.667969 129.761719 258.5 129.980469 C 255.664062 130.210938 254.574219 134.742188 252.183594 147.636719 C 252 148.621094 251.816406 149.628906 251.621094 150.636719 L 244.503906 150.636719 C 244.15625 129 241.832031 117.363281 237.425781 115.132812 C 236.128906 114.476562 234.898438 114.730469 234.160156 115.179688 C 229.203125 117.519531 229.050781 127.480469 228.832031 141.210938 C 228.789062 144.226562 228.734375 147.402344 228.625 150.636719 L 223.15625 150.636719 C 222.957031 146.566406 222.222656 142.441406 219.914062 140.226562 C 218.230469 138.617188 216.6875 138.585938 215.691406 138.84375 C 212.417969 139.667969 210.578125 144.652344 209.109375 149.257812 C 208.933594 149.800781 208.789062 150.257812 208.675781 150.5625 C 208.667969 150.585938 208.65625 150.609375 208.648438 150.636719 L 200.636719 150.636719 C 200.203125 149.351562 199.738281 148.046875 199.179688 146.757812 C 198.027344 144.066406 195.164062 142.703125 191.894531 143.289062 C 187.6875 144.035156 185.988281 147.117188 185.167969 150.636719 L 175.652344 150.636719 C 175.410156 147.402344 175.285156 144.128906 175.324219 140.96875 C 175.4375 132.222656 174.042969 127.011719 171.175781 125.480469 C 169.914062 124.804688 168.460938 124.917969 167.191406 125.789062 C 164.898438 127.367188 163.554688 131.039062 163.996094 134.527344 C 164.667969 139.90625 165.101562 145.335938 165.320312 150.636719 L 153.238281 150.636719 C 153.253906 146.75 153.28125 142.882812 153.3125 139.160156 C 153.570312 106.238281 153.214844 92.679688 148.601562 91.140625 C 147.554688 90.792969 146.488281 90.945312 145.613281 91.570312 C 141.675781 94.363281 141.296875 107.78125 141 129.429688 C 140.902344 136.679688 140.796875 144.035156 140.472656 150.636719 L 134.792969 150.636719 C 133.925781 143.394531 133.085938 136.734375 131.976562 133.679688 C 131.5625 132.519531 130.558594 129.761719 128.394531 129.980469 C 125.558594 130.210938 124.464844 134.742188 122.078125 147.636719 C 121.894531 148.621094 121.707031 149.628906 121.515625 150.636719 L 114.394531 150.636719 C 114.050781 129 111.726562 117.363281 107.316406 115.132812 C 106.015625 114.476562 104.789062 114.730469 104.050781 115.179688 C 99.097656 117.519531 98.945312 127.480469 98.730469 141.210938 C 98.679688 144.226562 98.628906 147.402344 98.523438 150.636719 L 93.046875 150.636719 C 92.847656 146.566406 92.117188 142.4375 89.804688 140.226562 C 88.125 138.617188 86.578125 138.585938 85.585938 138.835938 C 82.3125 139.667969 80.472656 144.648438 79.003906 149.25 C 78.828125 149.800781 78.679688 150.257812 78.566406 150.5625 C 78.558594 150.585938 78.546875 150.609375 78.539062 150.636719 L 70.53125 150.636719 C 70.09375 149.351562 69.632812 148.046875 69.074219 146.757812 C 67.917969 144.066406 65.058594 142.703125 61.785156 143.289062 C 57.78125 143.996094 55.730469 147.085938 54.574219 150.636719 L 49.859375 150.636719 C 54.453125 124.867188 65.625 93.289062 91.8125 68.492188 L 89.222656 66.128906 C 100.886719 54.492188 114.191406 44.902344 128.710938 37.855469 L 129.300781 39.101562 C 142.882812 31.46875 156.898438 27.320312 170.351562 25.402344 C 175.878906 24.695312 181.496094 24.316406 187.191406 24.316406 C 192.890625 24.316406 198.515625 24.695312 204.042969 25.402344 C 217.492188 27.324219 231.5 31.472656 245.078125 39.101562 L 245.667969 37.855469 C 260.335938 44.980469 273.769531 54.695312 285.515625 66.492188 L 283.328125 68.492188 C 309.507812 93.289062 320.6875 124.867188 325.277344 150.636719 Z M 298.671875 150.636719 C 298.445312 145.121094 298.003906 139.542969 297.320312 134.121094 C 296.929688 131.007812 297.992188 128.574219 298.449219 128.339844 C 298.46875 128.347656 300.820312 129.410156 302.199219 141.132812 C 302.558594 144.167969 302.882812 147.394531 303.191406 150.636719 Z M 289.585938 197.476562 C 289.242188 197.867188 288.921875 198.089844 288.695312 198.089844 C 288.585938 198.089844 288.285156 198.089844 287.859375 197.65625 C 283.964844 193.734375 283.339844 173.890625 283.339844 153.875 L 295.539062 153.875 C 296.085938 174.859375 293.375 193.183594 289.585938 197.476562 Z M 280.175781 139.140625 C 280.144531 143.132812 280.117188 146.964844 280.105469 150.636719 L 273.828125 150.636719 C 274.148438 144.007812 274.253906 136.6875 274.347656 129.476562 C 274.535156 115.890625 274.816406 95.363281 277.628906 94.195312 C 280.511719 96.152344 280.316406 121 280.175781 139.140625 Z M 268.25 169.007812 C 268.109375 169.457031 267.980469 169.828125 267.871094 170.128906 C 266.921875 166.992188 265.992188 159.695312 265.292969 153.875 L 270.398438 153.875 C 270 160.078125 269.355469 165.410156 268.25 169.007812 Z M 254.925781 150.636719 C 255.074219 149.839844 255.222656 149.035156 255.371094 148.230469 C 256.269531 143.398438 257.5625 136.4375 258.675781 133.902344 C 258.785156 134.132812 258.902344 134.425781 259.035156 134.785156 C 260 137.445312 260.835938 143.976562 261.636719 150.636719 Z M 248.636719 162.429688 C 247.472656 164.601562 246.773438 165.035156 246.765625 165.125 C 245.902344 164.53125 244.851562 160.398438 244.550781 156.480469 C 244.550781 155.59375 244.542969 154.730469 244.539062 153.875 L 250.988281 153.875 C 250.234375 157.617188 249.433594 160.933594 248.636719 162.429688 Z M 231.875 150.636719 C 231.980469 147.417969 232.035156 144.261719 232.082031 141.261719 C 232.246094 130.554688 232.417969 119.480469 235.597656 118.089844 L 235.816406 118.136719 L 235.960938 118.027344 C 236.796875 118.449219 240.765625 121.980469 241.257812 150.636719 Z M 227.460938 165.90625 C 226.65625 171.78125 225.8125 174.28125 225.320312 175.3125 C 224.375 173.292969 223.128906 167.414062 223.128906 158.996094 C 223.128906 158.390625 223.144531 157.664062 223.167969 156.875 C 223.191406 155.945312 223.214844 154.933594 223.21875 153.875 L 228.496094 153.875 C 228.308594 157.917969 227.996094 161.988281 227.460938 165.90625 Z M 212.074219 150.636719 C 212.117188 150.503906 212.15625 150.375 212.203125 150.242188 C 212.816406 148.3125 214.6875 142.441406 216.492188 141.984375 C 216.859375 141.886719 217.332031 142.253906 217.667969 142.574219 C 219.175781 144.011719 219.71875 147.324219 219.894531 150.636719 Z M 204.390625 159.128906 C 204.128906 158.980469 203.429688 158.390625 202.535156 156.097656 C 202.246094 155.363281 201.980469 154.621094 201.726562 153.875 L 207.542969 153.875 C 206.761719 156.007812 205.570312 158.757812 204.390625 159.128906 Z M 188.523438 150.636719 C 189.175781 148.339844 190.28125 146.863281 192.464844 146.476562 C 194.246094 146.164062 195.644531 146.742188 196.203125 148.039062 C 196.566406 148.886719 196.894531 149.757812 197.207031 150.636719 Z M 184.390625 156.242188 C 184.300781 157.175781 184.214844 158.097656 184.09375 159.054688 C 184.085938 159.136719 183.417969 167.566406 183.019531 170.074219 C 182.296875 174.609375 181.550781 176.34375 181.167969 176.972656 C 179.441406 174.910156 177.050781 164.988281 175.9375 153.875 L 184.628906 153.875 C 184.535156 154.675781 184.460938 155.472656 184.390625 156.242188 Z M 168.566406 150.636719 C 168.339844 145.121094 167.894531 139.542969 167.210938 134.121094 C 166.898438 131.613281 167.910156 129.234375 169.03125 128.464844 C 169.398438 128.207031 169.550781 128.289062 169.648438 128.339844 C 170.605469 128.851562 172.195312 132.078125 172.078125 140.921875 C 172.046875 143.519531 172.164062 146.921875 172.4375 150.636719 Z M 159.480469 197.476562 C 159.136719 197.867188 158.808594 198.089844 158.589844 198.089844 C 158.476562 198.089844 158.179688 198.089844 157.753906 197.65625 C 153.855469 193.734375 153.230469 173.890625 153.234375 153.875 L 165.429688 153.875 C 165.980469 174.859375 163.265625 193.183594 159.480469 197.476562 Z M 150.066406 139.140625 C 150.035156 143.132812 150.011719 146.964844 150 150.636719 L 143.71875 150.636719 C 144.042969 144.007812 144.148438 136.6875 144.246094 129.476562 C 144.429688 115.890625 144.710938 95.363281 147.523438 94.195312 C 150.40625 96.152344 150.207031 121 150.066406 139.140625 Z M 138.140625 169.007812 C 138 169.457031 137.875 169.828125 137.761719 170.128906 C 136.8125 166.992188 135.886719 159.695312 135.1875 153.875 L 140.289062 153.875 C 139.894531 160.078125 139.246094 165.410156 138.140625 169.007812 Z M 124.816406 150.636719 C 124.964844 149.839844 125.117188 149.035156 125.265625 148.230469 C 126.160156 143.398438 127.457031 136.4375 128.570312 133.902344 C 128.679688 134.132812 128.796875 134.425781 128.925781 134.785156 C 129.890625 137.445312 130.726562 143.976562 131.527344 150.636719 Z M 118.527344 162.429688 C 117.367188 164.601562 116.664062 165.035156 116.660156 165.125 C 115.792969 164.53125 114.742188 160.398438 114.4375 156.480469 C 114.4375 155.59375 114.433594 154.730469 114.429688 153.875 L 120.882812 153.875 C 120.128906 157.617188 119.328125 160.933594 118.527344 162.429688 Z M 101.769531 150.636719 C 101.875 147.417969 101.925781 144.261719 101.976562 141.261719 C 102.140625 130.554688 102.3125 119.480469 105.488281 118.089844 L 105.707031 118.136719 L 105.851562 118.027344 C 106.6875 118.449219 110.664062 121.980469 111.148438 150.636719 Z M 97.351562 165.90625 C 96.546875 171.78125 95.707031 174.28125 95.21875 175.3125 C 94.269531 173.292969 93.023438 167.414062 93.023438 158.996094 C 93.023438 158.390625 93.039062 157.664062 93.058594 156.871094 C 93.082031 155.945312 93.105469 154.933594 93.109375 153.875 L 98.390625 153.875 C 98.199219 157.917969 97.890625 161.988281 97.351562 165.90625 Z M 81.964844 150.636719 C 82.007812 150.503906 82.050781 150.375 82.089844 150.234375 C 82.707031 148.308594 84.582031 142.441406 86.386719 141.984375 C 86.75 141.886719 87.226562 142.253906 87.5625 142.574219 C 89.070312 144.011719 89.609375 147.324219 89.785156 150.636719 Z M 74.285156 159.128906 C 74.019531 158.980469 73.320312 158.390625 72.425781 156.097656 C 72.136719 155.363281 71.871094 154.621094 71.621094 153.875 L 77.433594 153.875 C 76.652344 156.007812 75.460938 158.757812 74.285156 159.128906 Z M 58 150.636719 C 58.890625 148.398438 60.210938 146.859375 62.355469 146.476562 C 64.136719 146.164062 65.535156 146.742188 66.09375 148.039062 C 66.457031 148.886719 66.789062 149.757812 67.097656 150.636719 Z M 84.195312 255.847656 C 88.046875 252.988281 101 263.882812 113.128906 280.195312 C 125.253906 296.503906 131.964844 312.046875 128.117188 314.90625 C 124.269531 317.765625 111.308594 306.863281 99.1875 290.554688 C 87.054688 274.242188 80.347656 258.707031 84.195312 255.847656 Z M 339.296875 250.855469 C 343.980469 236.011719 346.984375 220.28125 348.066406 203.949219 L 352.316406 205.203125 C 356.03125 112.523438 313.980469 68.140625 313.980469 68.140625 C 304.742188 57.59375 299.328125 56.558594 296.691406 57.101562 C 283.3125 43.195312 267.839844 31.800781 250.859375 23.597656 C 249.941406 21.125 246.804688 17.464844 237.410156 13.285156 C 237.410156 13.285156 220.632812 5.058594 191.144531 3.855469 L 191.144531 3.707031 C 189.800781 3.703125 188.488281 3.714844 187.191406 3.742188 C 185.890625 3.714844 184.578125 3.703125 183.234375 3.707031 L 183.234375 3.855469 C 153.746094 5.058594 136.976562 13.285156 136.976562 13.285156 C 127.574219 17.464844 124.4375 21.125 123.519531 23.59375 C 106.574219 31.789062 91.128906 43.144531 77.769531 57.007812 C 74.933594 56.78125 69.671875 58.417969 61.15625 68.140625 C 61.15625 68.140625 19.109375 112.523438 22.820312 205.203125 L 26.320312 204.171875 C 27.414062 220.355469 30.390625 235.941406 35.015625 250.65625 C 22.734375 255.546875 20.742188 268.144531 20.742188 268.144531 C 45.007812 331.535156 95.738281 371.222656 95.738281 371.222656 C 114.488281 366.261719 120.007812 354.6875 120.007812 354.6875 C 119.972656 354.65625 119.941406 354.625 119.910156 354.59375 C 124.890625 354.933594 129.269531 353.910156 132.703125 351.3125 C 147.0625 340.46875 139.769531 306.632812 116.410156 275.730469 C 93.050781 244.835938 62.476562 228.578125 48.117188 239.421875 C 47.550781 239.847656 47.027344 240.324219 46.535156 240.824219 C 42.855469 227.890625 40.574219 214.269531 39.835938 200.183594 L 47.433594 197.941406 C 47.433594 197.941406 45.269531 179.074219 49.3125 153.875 L 53.746094 153.875 C 53.429688 155.476562 53.230469 157.058594 53.054688 158.457031 L 52.90625 159.566406 L 56.125 159.996094 L 56.269531 158.871094 C 56.492188 157.097656 56.742188 155.410156 57.070312 153.875 L 68.199219 153.875 C 68.574219 155.019531 68.960938 156.15625 69.398438 157.277344 C 70.363281 159.742188 71.40625 161.226562 72.679688 161.953125 C 73.636719 162.492188 74.664062 162.578125 75.648438 162.195312 C 78.082031 161.257812 79.585938 157.679688 80.875 153.875 L 89.863281 153.875 C 89.855469 154.945312 89.835938 155.949219 89.816406 156.792969 C 89.792969 157.621094 89.78125 158.367188 89.78125 158.996094 C 89.78125 161.019531 89.925781 178.753906 95.070312 179.105469 C 97.3125 179.253906 99.089844 177.144531 100.566406 166.351562 C 101.128906 162.269531 101.445312 158.046875 101.640625 153.875 L 111.1875 153.875 C 111.191406 154.765625 111.199219 155.667969 111.199219 156.601562 C 111.503906 160.660156 112.527344 167.570312 115.949219 168.292969 C 118.460938 168.828125 120.253906 166.074219 121.386719 163.960938 C 122.429688 162.011719 123.324219 158.265625 124.195312 153.875 L 131.917969 153.875 C 133.882812 170.09375 134.804688 174.277344 137.519531 174.519531 C 139.488281 174.699219 140.484375 172.433594 141.242188 169.964844 C 142.441406 166.070312 143.121094 160.40625 143.539062 153.875 L 149.996094 153.875 C 150 178.847656 150.882812 195.34375 155.445312 199.941406 C 157.300781 201.804688 159.960938 201.835938 161.914062 199.625 C 166.640625 194.269531 169.230469 174.867188 168.675781 153.875 L 172.714844 153.875 C 173.863281 166.089844 176.589844 180.074219 181.023438 180.457031 C 183.546875 180.660156 185.070312 177.8125 186.226562 170.582031 C 186.644531 167.949219 187.300781 159.65625 187.316406 159.390625 C 187.4375 158.488281 187.527344 157.519531 187.625 156.539062 C 187.710938 155.59375 187.800781 154.707031 187.90625 153.875 L 198.304688 153.875 C 198.683594 155.019531 199.066406 156.15625 199.507812 157.277344 C 200.472656 159.742188 201.511719 161.226562 202.789062 161.953125 C 203.746094 162.492188 204.773438 162.578125 205.757812 162.195312 C 208.1875 161.257812 209.691406 157.679688 210.984375 153.875 L 219.964844 153.875 C 219.964844 154.945312 219.945312 155.949219 219.921875 156.792969 C 219.902344 157.621094 219.886719 158.367188 219.886719 158.996094 C 219.886719 161.019531 220.035156 178.753906 225.171875 179.105469 C 227.402344 179.230469 229.195312 177.144531 230.675781 166.351562 C 231.234375 162.269531 231.554688 158.046875 231.746094 153.875 L 241.296875 153.875 C 241.300781 154.765625 241.308594 155.667969 241.308594 156.601562 C 241.613281 160.660156 242.636719 167.570312 246.058594 168.292969 C 248.570312 168.828125 250.363281 166.074219 251.496094 163.960938 C 252.539062 162.011719 253.429688 158.265625 254.300781 153.875 L 262.023438 153.875 C 263.988281 170.09375 264.914062 174.277344 267.628906 174.519531 C 269.601562 174.699219 270.589844 172.433594 271.351562 169.964844 C 272.546875 166.070312 273.230469 160.40625 273.644531 153.875 L 280.101562 153.875 C 280.113281 178.847656 280.992188 195.34375 285.558594 199.941406 C 286.460938 200.847656 287.542969 201.328125 288.695312 201.328125 C 289.90625 201.328125 291.019531 200.757812 292.023438 199.625 C 296.742188 194.273438 299.332031 174.867188 298.785156 153.875 L 303.503906 153.875 C 305.304688 172.570312 306.355469 179.703125 309.914062 180.09375 C 312.226562 180.363281 314.003906 177.75 316.273438 170.835938 L 313.1875 169.824219 C 311.722656 174.296875 310.742188 175.96875 310.261719 176.582031 C 308.746094 174.023438 307.613281 162.722656 306.765625 153.875 L 325.828125 153.875 C 329.871094 179.074219 327.707031 197.941406 327.707031 197.941406 L 334.550781 199.964844 C 333.816406 214.285156 331.488281 228.128906 327.71875 241.257812 C 327.097656 240.589844 326.429688 239.972656 325.695312 239.421875 C 311.335938 228.578125 280.769531 244.835938 257.40625 275.730469 C 234.050781 306.632812 226.75 340.46875 241.109375 351.3125 C 244.550781 353.910156 248.925781 354.933594 253.902344 354.59375 C 253.871094 354.625 253.839844 354.65625 253.8125 354.6875 C 253.8125 354.6875 259.324219 366.261719 278.074219 371.222656 C 278.074219 371.222656 328.808594 331.535156 353.070312 268.144531 C 353.070312 268.144531 351.140625 255.882812 339.296875 250.855469 " fill-opacity="1" fill-rule="nonzero"/></g></svg>